<?xml version="1.0" encoding="UTF-8" standalone="no"?>
<svg
   xmlns:dc="http://purl.org/dc/elements/1.1/"
   xmlns:cc="http://creativecommons.org/ns#"
   xmlns:rdf="http://www.w3.org/1999/02/22-rdf-syntax-ns#"
   xmlns:svg="http://www.w3.org/2000/svg"
   xmlns="http://www.w3.org/2000/svg"
   viewBox="0 0 500 577.5"
   height="577.5"
   width="500"
   version="1.1"
   id="svg3391">
  <metadata
     id="metadata3397">
    <rdf:RDF>
      <cc:Work
         rdf:about="">
        <dc:format>image/svg+xml</dc:format>
        <dc:type
           rdf:resource="http://purl.org/dc/dcmitype/StillImage" />
        <dc:title></dc:title>
      </cc:Work>
    </rdf:RDF>
  </metadata>
  <defs
     id="defs3395">
    <filter
       height="1.0447792"
       y="-0.02238961"
       width="1.05172"
       x="-0.02586"
       id="filter6053"
       style="color-interpolation-filters:sRGB">
      <feGaussianBlur
         id="feGaussianBlur6055"
         stdDeviation="5.3875" />
    </filter>
    <filter
       height="1.0433991"
       y="-0.021699542"
       width="1.0536921"
       x="-0.026846062"
       id="filter6061"
       style="color-interpolation-filters:sRGB">
      <feGaussianBlur
         id="feGaussianBlur6063"
         stdDeviation="4.5094361" />
    </filter>
  </defs>
  <g
     style="filter:url(#filter6053)"
     id="g3415">
    <path
       id="path3409"
       d="m -4.0522876e-6,288.75 0,-288.750000015032583 250.0000040522876,0 250,0 L 500,288.75 l 0,288.75 -250,0 -250.0000040522876,0 0,-288.75 z"
       style="fill:#fcfcfe" />
    <path
       id="path3407"
       d="m 235,541.10781 c -9.00954,-8.45196 -60.37225,-57.97493 -81.84835,-78.91667 l -13.77665,-13.43388 -36.25,0.7779 -36.250004,0.7779 -4.634061,-6.09404 C 59.692201,440.86731 55.957446,436.15625 53.941478,433.75 L 50.276083,429.375 49.82554,245.64575 49.374996,61.916506 57.2596,55.958254 65.144204,50 l 184.118566,0 184.11857,0 9.55933,10.20704 9.55933,10.207039 -0.002,8.855461 c -0.002,4.870502 -1.11974,87.04296 -2.48474,182.60546 l -2.48182,173.75 -7.54874,7.1875 -7.54873,7.1875 -38.15696,0 -38.15695,0 -9.62229,9.04807 c -8.48851,7.98198 -28.39073,27.21048 -52.09025,50.32693 -40.92255,39.91576 -40.29183,39.3757 -45.97261,39.36499 -4.77136,-0.009 -6.1328,-0.78245 -13.43441,-7.63218 z"
       style="fill:#0055d4" />
    <path
       id="path3405"
       d="m 208.5582,514.6875 c -19.43998,-18.73438 -42.78965,-41.27772 -51.88819,-50.09635 l -16.54277,-16.03384 -34.85689,0.89915 c -20.007649,0.5161 -35.684564,0.42401 -36.799746,-0.21616 -1.85297,-1.0637 -9.824463,-10.42323 -15.504832,-18.20458 L 50.306547,427.39294 49.37363,247.02824 C 48.659734,109.00794 48.788055,66.014534 49.920207,63.899086 50.73393,62.378631 54.8029,58.629333 58.962361,55.567311 L 66.525019,50 l 182.821641,0 182.82163,0 9.5039,9.94761 c 5.22714,5.471186 9.83035,11.248335 10.22935,12.838109 1.19083,4.744655 -4.33003,359.745011 -5.63249,362.178691 -0.64814,1.21105 -4.3379,5.08949 -8.19947,8.61875 L 431.04854,450 l -38.05529,0 -38.05528,0 -19.2654,18.4375 c -10.59596,10.14062 -33.62126,32.35937 -51.16732,49.375 -29.26271,28.37805 -32.26181,30.9375 -36.2518,30.9375 -3.99533,0 -7.23056,-2.77615 -39.69525,-34.0625 z m 42.28449,14.7071 c 1.45692,-1.02047 5.69838,-4.81735 9.42546,-8.4375 3.72707,-3.62015 16.90179,-16.42585 29.27714,-28.4571 12.37535,-12.03125 29.93078,-29.04688 39.01208,-37.8125 l 16.51145,-15.9375 37.98853,0 37.98851,0 6.63776,-5.66589 c 3.65078,-3.11624 7.05925,-6.41906 7.57442,-7.33959 0.51515,-0.92053 2.05451,-78.65575 3.4208,-172.74492 2.13078,-146.73666 2.23536,-171.430635 0.73519,-173.597909 -0.96193,-1.38968 -5.05684,-6.042316 -9.09981,-10.339191 l -7.35083,-7.8125 -173.27654,0 -173.276557,0 -7.892648,5.404679 -7.892649,5.404677 0.408998,173.032814 0.408997,173.03283 2.638746,3.75 c 1.45131,2.0625 5.164944,6.69562 8.252518,10.29583 l 5.613772,6.54583 35.713483,-0.75228 35.71349,-0.75229 10.625,10.18959 c 5.84375,5.60427 22.68822,21.84092 37.43217,36.08145 14.74394,14.24053 31.90019,30.81051 38.125,36.82218 6.2248,6.01168 11.61454,10.93355 11.97719,10.9375 0.36267,0.004 1.8514,-0.82774 3.30833,-1.84821 z M 108.33333,430.41666 C 107.875,429.95834 107.5,427.19809 107.5,424.28278 c 0,-4.10087 1.94332,-9.07551 8.58607,-21.97917 4.72234,-9.17323 10.34734,-19.65648 12.5,-23.29612 2.15265,-3.63963 3.91393,-7.17477 3.91393,-7.85585 0,-0.6811 2.62892,-5.85948 5.84205,-11.5075 5.31134,-9.33625 10.85084,-19.81049 27.90795,-52.76914 17.05711,-32.95865 22.59661,-43.43289 27.90795,-52.76914 C 197.37108,248.45784 200,243.32681 200,242.7036 c 0,-0.6232 3.1553,-6.68959 7.01179,-13.48085 3.85647,-6.79126 8.2824,-15.16025 9.83539,-18.59775 1.55297,-3.4375 5.99142,-11.80649 9.86321,-18.59775 3.87178,-6.79126 7.03961,-12.83219 7.03961,-13.42429 0,-0.59211 3.14982,-6.71572 6.9996,-13.60805 l 6.99961,-12.5315 -6.81432,-13.4192 C 237.187,131.66364 230.07258,117.79961 225.12505,108.23524 217.22915,92.971188 216.1751,90.1444 216.50227,85.110236 L 216.875,79.375 l 5.8074,-0.375675 c 6.81961,-0.441155 7.71582,0.509286 15.67699,16.625675 11.84068,23.97001 17.95188,35 19.39185,35 0.84956,0 4.69912,-6.1875 8.55458,-13.75 3.85547,-7.5625 9.85317,-19.09375 13.32823,-25.625 l 6.31831,-11.875 6.08631,0 6.08633,0 -0.12845,8.125 c -0.11913,7.532848 -0.67496,9.081555 -7.62708,21.25 -4.12423,7.21875 -8.65413,15.74876 -10.06645,18.95556 -1.41231,3.20681 -4.96338,9.93231 -7.89127,14.94554 l -5.32343,9.11497 3.43158,6.30447 c 6.49174,11.92656 22.49136,42.56533 26.13854,50.05446 2.00886,4.125 6.39502,12.348 9.74702,18.27334 3.35199,5.92534 6.09454,11.3538 6.09454,12.06323 0,0.70944 3.375,7.17186 7.5,14.36092 4.125,7.18906 7.5,13.64277 7.5,14.34157 0,0.69882 3.375,7.22725 7.5,14.50764 4.125,7.28039 7.5,13.77795 7.5,14.43904 0,0.66109 3.375,7.14682 7.5,14.41274 4.125,7.26592 7.5,13.73467 7.5,14.375 0,0.64033 3.375,7.10908 7.5,14.375 4.125,7.26592 7.5,13.78035 7.5,14.47652 0,0.69617 3.375,7.2106 7.5,14.47652 4.125,7.26592 7.5,13.73467 7.5,14.375 0,0.64033 3.25346,6.92632 7.22992,13.96885 8.4516,14.96829 10.61265,20.94535 10.05302,27.80463 l -0.40794,5 -6.17656,0 -6.17657,0 -6.80242,-13.36765 c -3.74134,-7.35221 -7.66768,-13.69969 -8.72521,-14.10549 -2.16973,-0.83261 -235.68234,1.56535 -239.71897,2.46169 -1.45,0.32197 -3.61217,2.66342 -4.88902,5.29436 -10.03611,20.67941 -10.77108,21.59209 -17.38803,21.59209 -2.93236,0 -5.70655,-0.375 -6.16489,-0.83334 z m 213.07031,-43.81924 c 1.20218,-1.20302 -0.34424,-5.3196 -7.27838,-19.375 -4.8427,-9.81608 -12.60016,-25.72242 -17.23882,-35.34742 -4.63865,-9.625 -12.26333,-25.375 -16.9437,-35 -4.68038,-9.625 -10.60524,-21.85938 -13.16635,-27.1875 -2.56111,-5.32813 -5.34654,-9.6875 -6.18983,-9.6875 -0.8433,0 -2.23214,1.82812 -3.08632,4.0625 -1.46664,3.83645 -6.06799,14.03562 -9.44593,20.9375 -0.8412,1.71875 -8.40314,18.3125 -16.80431,36.875 -8.40118,18.5625 -16.00076,35.15625 -16.88796,36.875 -0.8872,1.71875 -3.13833,6.78125 -5.00249,11.25 -1.86418,4.46875 -4.45794,9.99631 -5.76394,12.28346 -1.306,2.28715 -2.02676,4.72118 -1.60171,5.40893 1.20299,1.94646 117.43551,0.88064 119.40974,-1.09497 z"
       style="fill:#ffffff" />
    <path
       id="path3403"
       d="m 208.5582,514.6875 c -19.43998,-18.73438 -42.78965,-41.27772 -51.88819,-50.09635 l -16.54277,-16.03384 -34.85689,0.89915 c -20.007649,0.5161 -35.684564,0.42401 -36.799746,-0.21616 -1.85297,-1.0637 -9.824463,-10.42323 -15.504832,-18.20458 L 50.306547,427.39294 49.37363,247.02824 C 48.659734,109.00794 48.788055,66.014534 49.920207,63.899086 50.73393,62.378631 54.8029,58.629333 58.962361,55.567311 L 66.525019,50 l 182.821641,0 182.82163,0 9.5039,9.94761 c 5.22714,5.471186 9.83035,11.248335 10.22935,12.838109 1.19083,4.744655 -4.33003,359.745011 -5.63249,362.178691 -0.64814,1.21105 -4.3379,5.08949 -8.19947,8.61875 L 431.04854,450 l -38.05529,0 -38.05528,0 -19.2654,18.4375 c -10.59596,10.14062 -33.62126,32.35937 -51.16732,49.375 -29.26271,28.37805 -32.26181,30.9375 -36.2518,30.9375 -3.99533,0 -7.23056,-2.77615 -39.69525,-34.0625 z m 42.28449,14.7071 c 1.45692,-1.02047 5.69838,-4.81735 9.42546,-8.4375 3.72707,-3.62015 16.90179,-16.42585 29.27714,-28.4571 12.37535,-12.03125 29.93078,-29.04688 39.01208,-37.8125 l 16.51145,-15.9375 37.98853,0 37.98851,0 6.63776,-5.66589 c 3.65078,-3.11624 7.05925,-6.41906 7.57442,-7.33959 0.51515,-0.92053 2.05451,-78.65575 3.4208,-172.74492 2.13078,-146.73666 2.23536,-171.430635 0.73519,-173.597909 -0.96193,-1.38968 -5.05684,-6.042316 -9.09981,-10.339191 l -7.35083,-7.8125 -173.27654,0 -173.276557,0 -7.892648,5.404679 -7.892649,5.404677 0.408998,173.032814 0.408997,173.03283 2.638746,3.75 c 1.45131,2.0625 5.164944,6.69562 8.252518,10.29583 l 5.613772,6.54583 35.713483,-0.75228 35.71349,-0.75229 10.625,10.18959 c 5.84375,5.60427 22.68822,21.84092 37.43217,36.08145 14.74394,14.24053 31.90019,30.81051 38.125,36.82218 6.2248,6.01168 11.61454,10.93355 11.97719,10.9375 0.36267,0.004 1.8514,-0.82774 3.30833,-1.84821 z"
       style="fill:#004dff;filter:url(#filter6061);fill-opacity:1" />
  </g>
</svg>
