<?xml version="1.0" encoding="UTF-8" standalone="no"?>
<svg
   xmlns:dc="http://purl.org/dc/elements/1.1/"
   xmlns:cc="http://creativecommons.org/ns#"
   xmlns:rdf="http://www.w3.org/1999/02/22-rdf-syntax-ns#"
   xmlns:svg="http://www.w3.org/2000/svg"
   xmlns="http://www.w3.org/2000/svg"
   xml:space="preserve"
   enable-background="new 0 0 492 369"
   viewBox="0 0 492 369"
   height="369px"
   width="492px"
   y="0px"
   x="0px"
   id="Capa_1"
   version="1.1"><metadata
     id="metadata9"><rdf:RDF><cc:Work
         rdf:about=""><dc:format>image/svg+xml</dc:format><dc:type
           rdf:resource="http://purl.org/dc/dcmitype/StillImage" /><dc:title></dc:title></cc:Work></rdf:RDF></metadata><defs
     id="defs7" /><path
     style="fill:#0000ff"
     id="path3"
     d="M484,324c-5.333-5.333-12-8-20-8h-34L269,14c-5.333-9.333-13-14-23-14s-17.667,4.667-23,14L62,316H28  c-8,0-14.667,2.667-20,8s-8,11.667-8,19s2.667,13.5,8,18.5s12,7.5,20,7.5h50h336h50c8,0,14.667-2.5,20-7.5s8-11.167,8-18.5  C492,335.666,489.333,329.333,484,324z M155,316l91-184l91,184H155z" /></svg>