<?xml version="1.0" encoding="UTF-8" standalone="no"?>
<svg
   xmlns:dc="http://purl.org/dc/elements/1.1/"
   xmlns:cc="http://creativecommons.org/ns#"
   xmlns:rdf="http://www.w3.org/1999/02/22-rdf-syntax-ns#"
   xmlns:svg="http://www.w3.org/2000/svg"
   xmlns="http://www.w3.org/2000/svg"
   viewBox="0 0 500 577.5"
   height="577.5"
   width="500"
   version="1.1"
   id="svg3362">
  <metadata
     id="metadata3368">
    <rdf:RDF>
      <cc:Work
         rdf:about="">
        <dc:format>image/svg+xml</dc:format>
        <dc:type
           rdf:resource="http://purl.org/dc/dcmitype/StillImage" />
        <dc:title></dc:title>
      </cc:Work>
    </rdf:RDF>
  </metadata>
  <defs
     id="defs3366">
    <filter
       height="1.0216355"
       y="-0.01081775"
       width="1.0269447"
       x="-0.013472368"
       id="filter4279"
       style="color-interpolation-filters:sRGB">
      <feGaussianBlur
         id="feGaussianBlur4281"
         stdDeviation="2.2535862" />
    </filter>
    <filter
       height="1.0867447"
       y="-0.043372337"
       width="1.1074662"
       x="-0.053733119"
       id="filter4371"
       style="color-interpolation-filters:sRGB">
      <feGaussianBlur
         id="feGaussianBlur4373"
         stdDeviation="8.5109986" />
    </filter>
    <filter
       height="1.3692734"
       y="-0.18463672"
       width="1.3511809"
       x="-0.17559046"
       id="filter4427"
       style="color-interpolation-filters:sRGB">
      <feGaussianBlur
         id="feGaussianBlur4429"
         stdDeviation="5.5777312" />
    </filter>
    <filter
       height="1.0864762"
       y="-0.043238095"
       width="1.1078812"
       x="-0.053940594"
       id="filter6103"
       style="color-interpolation-filters:sRGB">
      <feGaussianBlur
         id="feGaussianBlur6105"
         stdDeviation="8.8792912" />
    </filter>
    <filter
       height="1.2120187"
       y="-0.10600935"
       width="1.2201337"
       x="-0.11006684"
       id="filter6147"
       style="color-interpolation-filters:sRGB">
      <feGaussianBlur
         id="feGaussianBlur6149"
         stdDeviation="14.83249" />
    </filter>
  </defs>
  <g
     id="layer1">
    <g
       id="g4654">
      <path
         id="path3378"
         d="m 202.25247,508.1186 c -21.00623,-20.45313 -44.18936,-42.97181 -51.51806,-50.04154 l -13.32492,-12.85402 -36.59803,0.83135 -36.59804,0.83135 -10.9375,-9.6338 -10.9375,-9.6338 0,-181.63272 0,-181.632713 12.1875,-10.927675 12.1875,-10.927674 178.125,0.825661 178.125,0.825662 11.55479,12.14121 11.55478,12.141211 0.005,15.625 c 0.002,8.59375 -0.55623,88.749998 -1.24258,178.124998 l -1.24791,162.5 -10.93722,10.43544 -10.93721,10.43542 -34.00845,-0.77681 -34.00845,-0.77681 -9.02383,8.46637 c -4.9631,4.65652 -28.73675,27.45076 -52.83033,50.65389 -37.93608,36.53405 -44.31508,42.1875 -47.60161,42.1875 -3.2859,0 -8.91968,-4.98964 -41.98827,-37.1875 z m 94.46095,-25.96116 48.75,-47.09413 33.84069,0.77111 33.8407,0.77112 9.01512,-7.93344 c 4.95833,-4.36339 9.80399,-9.05967 10.76814,-10.4362 1.46621,-2.09332 1.97711,-30.16832 3.12284,-171.60685 l 1.36981,-169.104067 -3.05493,-3.92194 c -1.68021,-2.157067 -6.63286,-7.64414 -11.0059,-12.193492 L 415.40891,53.137999 245.74254,52.203357 76.07618,51.268716 71.3948,54.791624 c -2.574759,1.937599 -8.197005,6.872672 -12.49388,10.966827 l -7.8125,7.44392 0,172.745539 0,172.74555 6.5625,6.16446 c 3.609375,3.39047 8.603439,7.70538 11.097919,9.58869 l 4.535417,3.42421 36.089584,-0.78728 36.08958,-0.78729 38.21686,37.31742 c 62.68139,61.20618 59.4745,58.26579 62.0261,56.87137 1.24136,-0.67842 24.19454,-22.42583 51.00704,-48.3276 z m -80,-72.61663 -108.75,-1.65326 -15.994374,-16.60323 -15.994374,-16.60322 0.679262,-70.625 c 0.373593,-38.84375 1.035328,-103.06605 1.470522,-142.71623 l 0.791263,-72.091223 17.648851,-13.921201 17.64885,-13.921201 70.625,0.704686 c 38.84375,0.387577 99.95765,1.055142 135.80865,1.483477 l 65.18366,0.77879 13.87884,11.326069 13.87885,11.326068 -0.0305,11.327887 c -0.0167,6.230328 -0.84676,71.234128 -1.8445,144.452878 -0.99774,73.21875 -1.82777,136.91835 -1.84452,141.55467 l -0.0305,8.42968 -18.73438,9.38282 -18.73438,9.38283 -23.45312,-0.18101 c -12.8992,-0.0995 -72.3906,-0.92498 -132.2031,-1.83428 z m 168.04227,-12.94327 c 9.56118,-4.7897 17.69198,-9.20694 18.06844,-9.81607 0.93751,-1.51693 4.71585,-292.035779 3.82561,-294.155212 -0.39161,-0.932336 -6.36153,-6.269471 -13.2665,-11.8603 L 380.82877,70.600813 312.5211,69.823972 c -37.56923,-0.427264 -96.43268,-1.08821 -130.80768,-1.468771 l -62.5,-0.69193 -16.52666,12.883916 c -9.089669,7.086152 -16.816176,14.008915 -17.170023,15.383915 -0.353844,1.375 -1.236488,63.424298 -1.961431,137.887348 l -1.318076,135.38734 15.21918,16.17516 15.21919,16.17515 13.89391,0.12487 c 7.64165,0.0686 56.64391,0.82408 108.89391,1.67867 52.25,0.8546 103.30438,1.64216 113.45416,1.75013 l 18.45416,0.19633 17.38396,-8.70856 z M 151.67258,370.01441 c -0.33184,-0.87082 -0.45841,-59.52081 -0.28125,-130.33331 l 0.32209,-128.75 67.5,0 c 73.14271,0 75.12681,0.15192 94.68024,7.24943 24.38563,8.85151 41.79331,26.91431 49.03035,50.87557 3.16099,10.46579 3.89097,33.40741 1.47164,46.25 -5.26136,27.92891 -23.93211,49.22787 -51.55766,58.81525 -16.26013,5.64304 -23.68892,6.56124 -59.24957,7.32319 l -34.375,0.73656 -0.625,44.375 -0.625,44.375 -32.84374,0.33331 c -25.60017,0.25982 -32.97681,-0.0159 -33.4471,-1.25 z M 274.16944,229.6815 c 3.68375,-1.36131 8.55071,-4.63807 11.97508,-8.06245 13.71651,-13.71651 12.88499,-40.75091 -1.63571,-53.18009 -8.77135,-7.50796 -14.61784,-8.73917 -41.54539,-8.7491 l -23.75,-0.009 -0.33279,34.98313 c -0.18304,19.24072 -0.0403,35.74557 0.31738,36.67746 1.06125,2.76558 46.72712,1.38643 54.97143,-1.66019 z"
         style="fill:#737373" />
      <path
         id="path3376"
         d="m 190.46342,495.21365 c -27.5,-26.84112 -51.29491,-49.32925 -52.87759,-49.97361 -1.70679,-0.69489 -17.21876,-0.87214 -38.125,-0.43564 l -35.24741,0.73591 -10.3125,-9.03117 -10.3125,-9.03119 0,-181.48827 0,-181.488293 11.530859,-10.222643 11.530858,-10.222642 48.887163,0 c 26.88793,0 107.22977,0.374298 178.53741,0.831774 l 129.65025,0.831773 10.66137,11.614525 10.66136,11.614527 -1.35351,177.866199 -1.35352,177.8662 -10.31362,9.78383 -10.31362,9.78383 -32.7867,-0.7002 c -18.85266,-0.40262 -33.99294,-0.21212 -35.625,0.44825 -1.56106,0.63165 -25.9008,23.40133 -54.0883,50.59929 -44.38451,42.82636 -51.75235,49.44874 -55,49.43521 -3.24108,-0.0135 -10.53573,-6.63876 -53.75,-48.81766 z m 106.25,-11.75323 48.75,-47.06343 34.44441,0.39205 34.44441,0.39206 10.168,-9.1728 c 6.39263,-5.76696 10.41979,-10.40819 10.84615,-12.5 1.33794,-6.56426 3.32705,-336.022932 2.04734,-339.102312 -0.67996,-1.636187 -5.69957,-7.756136 -11.1547,-13.599886 l -9.91841,-10.625 -167.58776,-1.083806 C 156.57959,50.501202 79.319722,50.363105 77.06426,50.790413 c -4.521154,0.856554 -24.657878,17.91382 -26.30137,22.27917 -0.522792,1.388609 -0.804043,80.138257 -0.625,174.999227 l 0.32553,172.47448 3.277757,2.69391 c 1.802767,1.48164 6.53263,5.5064 10.510808,8.9439 l 7.23305,6.25 36.989195,-0.39989 36.98919,-0.39988 39.47852,38.52488 c 61.0767,59.60134 58.20579,56.97579 60.77737,55.58305 1.23426,-0.66847 24.18161,-22.39395 50.99411,-48.27884 z M 151.67258,370.01441 c -0.33184,-0.87082 -0.45841,-59.52081 -0.28125,-130.33331 l 0.32209,-128.75 57.5,-0.37731 c 76.43146,-0.50153 91.2296,1.10792 114.375,12.43952 8.17838,4.00399 12.81126,7.38778 20.11929,14.6948 10.2828,10.28139 15.41795,19.25441 19.38222,33.86799 3.04884,11.23896 3.05123,37.49596 0.005,48.75 -6.64207,24.53401 -22.67066,42.24052 -47.21047,52.1526 -15.5336,6.2743 -27.80568,7.99109 -63.54548,8.88961 l -33.12556,0.83279 -0.625,44.375 -0.625,44.375 -32.84374,0.33331 c -25.60017,0.25982 -32.97681,-0.0159 -33.4471,-1.25 z M 274.21342,230.30784 c 8.52401,-4.01962 13.97101,-8.73544 17.54716,-15.19174 3.41126,-6.1586 3.70284,-7.6693 3.70284,-19.185 0,-11.4669 -0.30076,-13.04283 -3.63911,-19.06791 -4.04484,-7.30018 -8.97593,-11.59727 -17.15087,-14.94569 -4.61916,-1.89199 -9.3101,-2.2364 -30.46002,-2.2364 l -25,0 -0.33279,34.98312 c -0.18304,19.24073 -0.0409,35.74383 0.31588,36.67357 0.93621,2.4397 49.59068,1.52886 55.01691,-1.02995 z"
         style="fill:#fd1717" />
      <path
         id="path3374"
         d="m 190.46342,495.21365 c -27.5,-26.84112 -51.29491,-49.32925 -52.87759,-49.97361 -1.70679,-0.69489 -17.21876,-0.87214 -38.125,-0.43564 l -35.24741,0.73591 -10.3125,-9.03117 -10.3125,-9.03119 0,-181.48827 0,-181.488293 11.530859,-10.222643 11.530858,-10.222642 48.887163,0 c 26.88793,0 107.22977,0.374298 178.53741,0.831774 l 129.65025,0.831773 10.66137,11.614525 10.66136,11.614527 -1.35351,177.866199 -1.35352,177.8662 -10.31362,9.78383 -10.31362,9.78383 -32.7867,-0.7002 c -18.85266,-0.40262 -33.99294,-0.21212 -35.625,0.44825 -1.56106,0.63165 -25.9008,23.40133 -54.0883,50.59929 -44.38451,42.82636 -51.75235,49.44874 -55,49.43521 -3.24108,-0.0135 -10.53573,-6.63876 -53.75,-48.81766 z m 106.25,-11.75323 48.75,-47.06343 34.44441,0.39205 34.44441,0.39206 10.168,-9.1728 c 6.39263,-5.76696 10.41979,-10.40819 10.84615,-12.5 1.33794,-6.56426 3.32705,-336.022932 2.04734,-339.102312 -0.67996,-1.636187 -5.69957,-7.756136 -11.1547,-13.599886 l -9.91841,-10.625 -167.58776,-1.083806 C 156.57959,50.501202 79.319722,50.363105 77.06426,50.790413 c -4.521154,0.856554 -24.657878,17.91382 -26.30137,22.27917 -0.522792,1.388609 -0.804043,80.138257 -0.625,174.999227 l 0.32553,172.47448 3.277757,2.69391 c 1.802767,1.48164 6.53263,5.5064 10.510808,8.9439 l 7.23305,6.25 36.989195,-0.39989 36.98919,-0.39988 39.47852,38.52488 c 61.0767,59.60134 58.20579,56.97579 60.77737,55.58305 1.23426,-0.66847 24.18161,-22.39395 50.99411,-48.27884 z"
         style="fill:#013396;fill-opacity:1;filter:url(#filter4279)" />
      <path
         style="fill:none;fill-rule:evenodd;stroke:#00d3ff;stroke-width:12.4;stroke-linecap:round;stroke-linejoin:round;stroke-opacity:1;stroke-miterlimit:4;stroke-dasharray:none;filter:url(#filter6103)"
         d="m 46.156667,421.81904 0.782317,-352.042381 23.469492,-21.122543 347.348484,0 23.46949,23.469492 -3.12927,348.913112 -20.34022,21.12254 -68.84385,-0.78231 -105.61271,100.1365 -102.48345,-99.35419 -71.973107,-2.34695 z"
         id="path4285" />
      <path
         style="fill:#0055d4;fill-opacity:1;stroke:#000073;stroke-width:0;stroke-linecap:round;stroke-linejoin:round;stroke-miterlimit:4;stroke-dasharray:none;stroke-opacity:1;filter:url(#filter4371)"
         d="m 235.16283,519.70042 c -4.23145,-3.95267 -13.67826,-13.03944 -20.99292,-20.19282 -20.62211,-20.16741 -43.5968,-42.58218 -54.59396,-53.26342 -5.50106,-5.34304 -11.3087,-10.30996 -12.90587,-11.0376 -2.50102,-1.13943 -5.56364,-1.30615 -22.07305,-1.20157 -10.543,0.0668 -26.802082,-0.16812 -36.131282,-0.52201 l -16.962181,-0.64342 -8.196589,-6.50752 c -4.508124,-3.57913 -8.417883,-7.20475 -8.688354,-8.05693 -0.27047,-0.85218 -0.566422,-78.23931 -0.65767,-171.97142 L 53.795048,75.881709 55.52126,73.106275 C 57.217163,70.379572 67.1297,61.434042 72.495735,57.787727 l 2.730004,-1.855086 169.740051,0 169.74005,0 7.52127,8.018743 c 4.1367,4.410308 8.46448,9.377205 9.6173,11.037548 l 2.09601,3.018804 -0.19865,34.532384 c -0.10926,18.99281 -0.70747,89.09895 -1.32935,155.79142 -0.62187,66.69247 -1.13314,127.24376 -1.13614,134.55842 l -0.005,13.29938 -7.47427,7.24342 c -4.11085,3.98389 -8.37532,7.83381 -9.4766,8.5554 -1.79343,1.17511 -5.56589,1.3172 -36.16036,1.36206 l -34.15803,0.0501 -2.26661,1.78078 c -1.24662,0.97944 -11.0828,10.30856 -21.85815,20.73139 -10.77535,10.42283 -20.68805,20.00672 -22.02822,21.29754 -8.08479,7.78709 -35.95046,34.55447 -36.66508,35.21997 -0.47131,0.43892 -4.11794,3.87133 -8.10361,7.62758 -3.98567,3.75625 -7.91647,6.82955 -8.7351,6.82955 -0.81864,0 -4.95053,-3.23401 -9.18197,-7.18669 l 2e-5,1e-5 z m 156.10403,-117.15273 18.66537,-9.33891 0.52572,-31.92828 c 0.92117,-55.94395 3.63884,-274.271863 3.41651,-274.469776 -0.11763,-0.104708 -6.43875,-5.277276 -14.04694,-11.494595 L 385.99443,64.011913 344.28305,63.52131 C 321.34179,63.251478 260.15056,62.598883 208.30254,62.071099 l -94.26913,-0.959608 -17.797698,14.031382 -17.797698,14.03138 -0.01048,10.17353 c -0.0058,5.595437 -0.514523,56.819147 -1.130579,113.830457 -0.616055,57.0113 -1.216043,116.73327 -1.333305,132.71548 l -0.213206,29.05857 16.022115,16.60446 16.022111,16.60446 94.65039,1.45802 c 97.10996,1.49591 117.21479,1.77416 150.78785,2.08693 l 19.36859,0.18044 18.66536,-9.33891 z"
         id="path4287" />
      <path
         style="fill:#2c5aa0;fill-opacity:1;stroke:#000073;stroke-width:0;stroke-linecap:round;stroke-linejoin:round;stroke-miterlimit:4;stroke-dasharray:none;stroke-opacity:1"
         d="m 296.31313,404.03028 c -18.07151,-0.30154 -62.25283,-0.95291 -98.18071,-1.44749 -35.92788,-0.49457 -69.9089,-1.09967 -75.51338,-1.34465 L 112.42907,400.7927 97.330865,384.75908 82.232658,368.72545 82.676503,349.03884 c 0.244114,-10.82764 0.630355,-42.39335 0.858313,-70.14603 0.227958,-27.75267 0.769182,-80.20699 1.202719,-116.56514 l 0.78825,-66.105735 4.866016,-4.695336 C 93.06811,88.944164 100.71447,82.587377 107.38372,77.400406 l 12.12591,-9.430857 51.63288,0.569743 c 28.39808,0.313358 87.17519,0.987344 130.61579,1.497747 l 78.98292,0.928004 5.89841,4.771385 c 3.24413,2.624261 9.03409,7.426956 12.86658,10.672655 l 6.96817,5.90127 -0.50777,62.194157 c -0.69407,85.0131 -2.84252,224.91702 -3.51989,229.20961 l -0.55409,3.51133 -16.80319,8.79543 -16.8032,8.79543 -19.55791,-0.11889 c -10.75685,-0.0654 -34.34369,-0.3656 -52.4152,-0.66714 z m -78.10012,-33.11439 c 0.0724,-0.0567 0.38876,-19.87992 0.70316,-44.0515 l 0.57162,-43.94832 5.55539,-0.41945 c 3.05545,-0.23071 15.91521,-0.62274 28.57722,-0.87118 33.22824,-0.65199 41.45636,-1.54552 55.60095,-6.03798 22.95526,-7.2908 38.74298,-20.32621 48.78334,-40.27881 6.61288,-13.14138 9.21659,-29.67293 7.70019,-48.89023 -0.96598,-12.24179 -2.09585,-17.42904 -5.66246,-25.9964 -4.97166,-11.94249 -15.67254,-25.12535 -26.1781,-32.24992 -10.46529,-7.09726 -25.92335,-13.3355 -38.4636,-15.52233 -11.32306,-1.97458 -57.18704,-3.0288 -102.94238,-2.36622 l -41.26949,0.59763 0.19787,129.96691 0.19788,129.9669 5.08505,0.49079 c 4.0051,0.38655 61.01395,0.0254 61.54336,-0.38989 z"
         id="path4289" />
      <path
         style="fill:#ffffff;fill-opacity:1;stroke:#000073;stroke-width:0;stroke-linecap:round;stroke-linejoin:round;stroke-miterlimit:4;stroke-dasharray:none;stroke-opacity:1"
         d="M 352.83549,410.9706 C 289.62622,410.13878 182.2381,408.63897 148.42417,408.11573 L 108.12815,407.49217 92.205067,390.97599 76.281983,374.45981 77.706911,243.51853 c 0.783711,-72.01771 1.431255,-136.10877 1.438987,-142.42458 l 0.01406,-11.483287 17.459429,-13.838557 17.459423,-13.838557 20.57423,0.195791 c 11.31582,0.107685 71.17245,0.654836 133.01474,1.215891 61.84228,0.561055 113.81127,1.223968 115.48662,1.473139 2.06222,0.306707 7.26359,3.880391 16.10331,11.064042 7.18147,5.836053 13.28457,11.203488 13.56244,11.927634 0.49314,1.285086 -1.92466,210.952024 -3.15262,273.389234 l -0.61748,31.39654 -19.00724,9.51267 c -10.45397,5.23198 -19.33429,9.41589 -19.73404,9.29758 -0.39976,-0.11831 -8.26273,-0.31427 -17.47328,-0.43547 z m 31.6873,-13.83779 c 9.40783,-4.81068 17.51353,-9.23878 18.01267,-9.8402 1.02509,-1.23515 2.36019,-70.08412 3.97244,-204.85119 l 1.07603,-89.944886 -4.16842,-3.721785 c -2.29262,-2.046982 -8.27194,-7.054395 -13.28739,-11.127584 l -9.11899,-7.4058 L 250.01321,68.734998 119.01728,67.22863 106.02903,77.462706 C 98.88549,83.091448 91.263097,89.419275 89.090377,91.524544 l -3.950399,3.827762 -0.598621,27.751274 c -0.329241,15.26321 -1.092363,76.96532 -1.695827,137.11581 l -1.097207,109.36454 7.55278,7.88331 c 4.154028,4.33583 11.110807,11.59399 15.459497,16.12926 l 7.90673,8.24593 107.88309,1.58167 c 59.3357,0.86993 111.11276,1.69162 115.06014,1.82598 3.94738,0.13436 12.71881,0.33095 19.49207,0.43687 l 12.315,0.19258 17.10516,-8.74672 z"
         id="path4295" />
      <path
         style="fill:#214478;fill-opacity:1;stroke:#000073;stroke-width:0;stroke-linecap:round;stroke-linejoin:round;stroke-miterlimit:4;stroke-dasharray:none;stroke-opacity:1;filter:url(#filter4427)"
         d="m 225.44245,232.02783 -5.38312,-0.39988 -0.66653,-6.76421 c -0.36659,-3.72031 -0.35545,-19.90002 0.0248,-35.95491 l 0.69127,-29.19071 23.54024,0.48227 c 26.56497,0.54424 30.6772,1.27335 38.15949,6.76586 16.84993,12.36898 18.25533,40.99836 2.72035,55.41608 -5.4663,5.07317 -10.2579,7.2393 -18.29653,8.27128 -8.90593,1.14332 -32.97996,1.95438 -40.78992,1.37422 z"
         id="path4297" />
      <path
         style="fill:#21449e;fill-opacity:1;stroke:#000073;stroke-width:0;stroke-linecap:round;stroke-linejoin:round;stroke-miterlimit:4;stroke-dasharray:none;stroke-opacity:1;filter:url(#filter6147)"
         d="m 239.43803,402.87569 c -28.94745,-0.42975 -69.28214,-1.14116 -89.63264,-1.58091 l -37.00091,-0.79954 -9.40938,-9.98733 C 98.219935,385.01489 91.493398,377.88401 88.447238,374.6615 l -5.538473,-5.85908 1.476079,-136.24659 1.476078,-136.246583 4.061069,-3.738219 c 2.233588,-2.056021 9.874483,-8.416553 16.979769,-14.134516 l 12.9187,-10.396296 14.83258,0.492158 c 8.15791,0.270686 66.82953,1.000684 130.38136,1.622218 l 115.54879,1.130061 12.87351,10.598416 12.87351,10.598416 -0.42337,18.181875 c -0.23285,10.00003 -0.6414,46.17238 -0.90789,80.38301 -0.64423,82.70641 -2.43327,188.65361 -3.2557,192.80403 -0.6281,3.16967 -1.41727,3.73039 -16.41056,11.65998 l -15.75074,8.33019 -38.75609,-0.0918 c -21.31586,-0.0504 -62.44038,-0.44337 -91.38783,-0.87312 z m -20.12659,-75.22605 c 0.38672,-24.07902 0.87314,-43.95776 1.08091,-44.17497 0.20776,-0.21721 12.54457,-0.74524 27.41512,-1.17341 32.26676,-0.92902 45.61581,-2.05955 55.80644,-4.72621 33.56135,-8.78227 55.27326,-30.98246 61.22818,-62.60517 1.27839,-6.78867 1.50751,-11.75344 1.08196,-23.44504 -0.78087,-21.45348 -3.45051,-30.46577 -13.20404,-44.57475 -7.71701,-11.16305 -16.3309,-18.53476 -28.9087,-24.73986 -14.80088,-7.30184 -24.63225,-9.93155 -41.22153,-11.026 -15.39653,-1.01576 -63.71054,-1.59029 -104.15671,-1.23858 l -27.51204,0.23924 0,130.62239 0,130.62239 33.84363,0 33.84363,0 0.70315,-43.78003 z"
         id="path4299" />
      <path
         style="fill:#ffffff;fill-opacity:1;stroke:#000073;stroke-width:0;stroke-linecap:round;stroke-linejoin:round;stroke-miterlimit:4;stroke-dasharray:none;stroke-opacity:1;"
         d="m 160.996,370.6762 c -7.61363,-0.25315 -8.31609,-0.44328 -8.83864,-2.39235 -0.7801,-2.90974 -0.74556,-214.98194 0.0388,-238.40272 l 0.63261,-18.88915 64.67858,0.39971 c 70.26215,0.43421 75.1889,0.76062 91.47292,6.06032 14.40934,4.68958 23.88262,10.39792 33.9945,20.48415 10.28951,10.26342 15.50505,18.94439 19.29272,32.11166 1.93493,6.72647 2.18615,9.69408 2.18275,25.78325 -0.005,20.6197 -0.8377,25.13587 -7.04162,38.16187 -4.27707,8.98028 -6.66487,12.34376 -14.23648,20.05365 -12.6208,12.85127 -31.00746,21.46205 -52.37375,24.52748 -6.17455,0.88586 -41.16413,2.65274 -62.6796,3.16514 l -9.09094,0.21651 -0.77873,44.00055 c -0.4283,24.2003 -0.86672,44.08853 -0.97426,44.19607 -0.35991,0.35992 -47.90042,0.80243 -56.27889,0.52386 z M 276.19148,229.59807 c 6.66713,-3.09511 13.86637,-10.08389 17.04022,-16.54207 2.13132,-4.33683 2.35143,-5.94918 2.35143,-17.22493 0,-12.35242 -0.0232,-12.48292 -3.27956,-18.48898 -4.01416,-7.40364 -9.99399,-12.8325 -17.15391,-15.57339 -5.01374,-1.91932 -7.23498,-2.07709 -30.76285,-2.18503 l -25.35893,-0.11634 -0.25106,35.82149 c -0.19622,27.99781 0.0128,36.00162 0.95694,36.64621 0.6644,0.4536 12.40421,0.68667 26.08846,0.51793 24.6287,-0.3037 24.93599,-0.33258 30.36926,-2.85489 z"
         id="path4301" />
    </g>
  </g>
</svg>
