<?xml version="1.0" encoding="UTF-8" standalone="no"?>
<svg
   xmlns:osb="http://www.openswatchbook.org/uri/2009/osb"
   xmlns:dc="http://purl.org/dc/elements/1.1/"
   xmlns:cc="http://creativecommons.org/ns#"
   xmlns:rdf="http://www.w3.org/1999/02/22-rdf-syntax-ns#"
   xmlns:svg="http://www.w3.org/2000/svg"
   xmlns="http://www.w3.org/2000/svg"
   xmlns:xlink="http://www.w3.org/1999/xlink"
   viewBox="0 0 500 577.5"
   height="577.5"
   width="500"
   version="1.1"
   id="svg4666">
  <metadata
     id="metadata4672">
    <rdf:RDF>
      <cc:Work
         rdf:about="">
        <dc:format>image/svg+xml</dc:format>
        <dc:type
           rdf:resource="http://purl.org/dc/dcmitype/StillImage" />
        <dc:title></dc:title>
      </cc:Work>
    </rdf:RDF>
  </metadata>
  <defs
     id="defs4670">
    <linearGradient
       osb:paint="solid"
       id="linearGradient7100">
      <stop
         id="stop7102"
         offset="0"
         style="stop-color:#0044aa;stop-opacity:1;" />
    </linearGradient>
    <linearGradient
       osb:paint="solid"
       id="linearGradient6746">
      <stop
         id="stop6748"
         offset="0"
         style="stop-color:#000f38;stop-opacity:1;" />
    </linearGradient>
    <linearGradient
       gradientUnits="userSpaceOnUse"
       y2="286.89681"
       x2="436.71846"
       y1="286.89681"
       x1="51.459545"
       id="linearGradient6750"
       xlink:href="#linearGradient6746" />
    <linearGradient
       gradientUnits="userSpaceOnUse"
       y2="286.89682"
       x2="436.71844"
       y1="286.89682"
       x1="51.459545"
       id="linearGradient6750-2"
       xlink:href="#linearGradient7100"
       gradientTransform="translate(1.9399131e-8,-1.9249834e-6)" />
    <filter
       height="1.0216565"
       y="-0.010828267"
       width="1.0269122"
       x="-0.013456091"
       id="filter6764-1"
       style="color-interpolation-filters:sRGB">
      <feGaussianBlur
         id="feGaussianBlur6766-2"
         stdDeviation="2.1600328" />
    </filter>
    <filter
       height="1.0432947"
       y="-0.021647366"
       width="1.0538527"
       x="-0.026926354"
       id="filter6028"
       style="color-interpolation-filters:sRGB">
      <feGaussianBlur
         id="feGaussianBlur6030"
         stdDeviation="4.5319639" />
    </filter>
  </defs>
  <g
     style="stroke:#00d2ea;stroke-opacity:1;filter:url(#filter6028);opacity:1;stroke-linejoin:round;stroke-width:1;stroke-miterlimit:4;stroke-dasharray:none"
     id="g7190">
    <path
       style="fill:#ffffff;fill-opacity:1;stroke:#00d2ea;stroke-opacity:1;stroke-linejoin:round;stroke-width:1;stroke-miterlimit:4;stroke-dasharray:none"
       d="m 189.42813,490.71736 -51.25,-49.9919 -36.875,0.72708 -36.875001,0.72709 -10.9375,-9.63305 -10.9375,-9.63305 0,-181.4782 0,-181.478203 12.1875,-10.835282 12.1875,-10.835283 46.980501,-0.01438 c 25.83927,-0.0079 106.16004,0.359898 178.49059,0.817333 l 131.51008,0.831698 11.29343,12.248864 11.29344,12.248863 -1.35583,177.85694 -1.35581,177.85693 -10.9282,10.39528 -10.9282,10.39527 -34.375,-0.72346 -34.375,-0.72345 -52.5,50.62893 c -45.4592,43.83905 -53.00291,50.62725 -56.25,50.61641 -3.24364,-0.0113 -10.67035,-6.76299 -55,-50.00444 z m 106.31382,-11.9378 49.93618,-48.22825 34.375,0.71882 34.375,0.71884 10.29232,-9.67808 10.29234,-9.67807 1.31957,-170.39109 1.31957,-170.391077 -10.82834,-11.796413 -10.82832,-11.796414 -45.26413,0 c -24.89527,0 -101.74787,-0.332846 -170.78357,-0.739658 l -125.519441,-0.739657 -11.5625,10.398875 -11.5625,10.398875 0,173.858859 0,173.85888 10.3125,8.98457 10.3125,8.98459 36.875001,-0.72406 36.875,-0.72407 48.75,47.5923 c 26.8125,26.17577 49.34122,47.59414 50.06382,47.59639 0.7226,0.002 23.7851,-21.69861 51.25,-48.22416 z M 98.155809,381.61983 c -5.14229,-4.52381 -5.70881,-11.96695 -5.49465,-72.1906 0.17811,-50.08264 -0.0149,-56.11552 -1.91299,-59.78596 -2.22704,-4.30663 -8.25943,-7.63545 -13.83671,-7.63545 -4.9272,0 -9.35833,-5.1868 -9.35833,-10.95428 0,-5.91832 1.2713,-7.57801 10,-13.05498 3.78125,-2.37261 9.125,-6.4382 11.875,-9.03464 2.75,-2.59642 6.96875,-5.73856 9.375,-6.98252 2.406251,-1.24395 6.625001,-4.58763 9.375001,-7.43039 2.75,-2.84275 7.25,-6.49169 10,-8.10875 2.75,-1.61706 6.27909,-4.67803 7.84242,-6.80214 1.56334,-2.12411 5.01853,-4.97219 7.6782,-6.32905 2.65967,-1.35686 6.72433,-4.65767 9.03257,-7.33514 2.30825,-2.67747 6.04915,-5.81758 8.31312,-6.97805 2.26396,-1.16045 7.60771,-5.06162 11.875,-8.66926 4.26728,-3.60764 10.54921,-8.47057 13.95985,-10.80652 3.41064,-2.33595 8.19189,-6.00299 10.625,-8.14899 2.43311,-2.14599 7.11155,-5.44534 10.39654,-7.33186 3.28497,-1.88654 6.65997,-4.56027 7.5,-5.94164 1.44849,-2.38196 21.60661,-16.3062 29.5627,-20.420449 7.4998,-3.8783 20.33942,-1.74104 25.70719,4.279179 1.37092,1.53756 6.15551,4.93483 10.63241,7.54948 4.4769,2.61465 9.26149,6.0146 10.63241,7.55545 1.37093,1.54084 6.26984,5.23619 10.88646,8.21188 4.61664,2.9757 10.58784,7.39246 13.26933,9.81503 2.6815,2.42257 6.87201,5.23889 9.31226,6.25849 2.44027,1.0196 6.55604,4.44004 9.14618,7.60096 2.59014,3.16093 7.40914,7.11523 10.70887,8.78733 3.29974,1.6721 6.89873,4.41254 7.99774,6.08986 1.09902,1.67733 4.65721,4.75594 7.90709,6.84138 3.24987,2.08545 7.28267,5.27333 8.96176,7.08421 1.6791,1.81089 6.9904,5.97581 11.8029,9.25541 4.8125,3.2796 10.12206,7.44268 11.79903,9.25129 1.67697,1.80861 5.61447,4.75902 8.75,6.55647 3.13553,1.79745 7.45752,4.92325 9.60443,6.94623 2.1469,2.02296 6.6469,5.47091 10,7.66209 7.77217,5.07893 9.5726,10.46951 5.96474,17.85867 -1.97625,4.04751 -3.98249,5.62701 -12.12191,9.54355 -14.43639,6.94651 -13.63721,2.70935 -13.23914,70.19378 0.31119,52.75333 0.18372,56.67297 -1.99024,61.20421 -3.37757,7.03994 -8.33633,8.80428 -19.84266,7.06012 -4.9461,-0.74975 -20.42961,-1.1998 -34.56672,-1.00473 -28.96508,0.39965 -31.65073,-0.2349 -35.52193,-8.39285 -1.88247,-3.967 -2.15286,-10.39312 -2.35606,-55.99257 l -0.22954,-51.51126 -3.125,-6.25 c -2.30769,-4.61539 -4.59615,-7.06731 -8.75,-9.375 l -5.625,-3.125 -35,0.32811 c -20.30754,0.19038 -36.69659,0.88408 -39.04155,1.65253 -4.1577,1.36247 -14.28448,13.22259 -16.68803,19.54442 -0.71141,1.87115 -1.16483,23.21449 -1.10091,51.82086 0.0996,44.57263 -0.0806,49.0199 -2.1554,53.19104 -4.38792,8.82136 -4.14836,8.77281 -46.96967,9.51791 -38.24638,0.6655 -38.47248,0.65427 -41.566761,-2.06786 z"
       id="path4676" />
    <path
       style="fill:url(#linearGradient6750);fill-opacity:1;stroke:#00d2ea;stroke-width:1;stroke-linecap:round;stroke-linejoin:round;stroke-miterlimit:4;stroke-dasharray:none;stroke-opacity:1"
       d="m 231.13709,514.08056 c -7.07096,-6.70633 -29.19935,-28.13064 -49.1742,-47.60958 l -36.3179,-35.41626 -11.27929,0.46223 c -6.20361,0.25422 -22.71649,0.67954 -36.695279,0.94517 L 72.254442,432.94507 61.86221,423.92537 51.469977,414.90568 51.464764,241.4716 51.45955,68.037534 62.781214,57.778612 74.102877,47.519691 244.62099,48.051375 415.1391,48.58306 l 9.52137,9.870543 c 5.23675,5.428798 10.18487,10.826902 10.99583,11.995785 1.34715,1.941742 1.37326,16.784529 0.30246,171.904432 l -1.172,169.77921 -10.06771,9.56083 -10.0677,9.56084 -14.5436,-0.0849 c -7.99898,-0.0467 -23.52674,-0.35441 -34.50613,-0.68375 l -19.96252,-0.59879 -30.40733,29.42384 c -36.2903,35.11653 -69.90419,66.96282 -70.67953,66.96282 -0.30737,0 -6.34418,-5.487 -13.41515,-12.19332 z M 169.46307,383.04345 c 5.17438,-0.43124 10.57422,-1.34305 11.99965,-2.02624 1.42543,-0.68319 3.63825,-3.11137 4.9174,-5.39596 l 2.32572,-4.15379 0.53986,-50.36985 c 0.34093,-31.80982 0.89701,-51.22123 1.50914,-52.68039 1.55773,-3.71328 9.43139,-13.71404 12.85014,-16.32164 3.02351,-2.30615 3.81353,-2.42826 20.46309,-3.16306 9.52499,-0.42037 26.21087,-0.78315 37.07975,-0.80619 18.63887,-0.0396 19.95155,0.0714 23.10543,1.95364 5.21256,3.11074 8.38832,6.38725 11.05483,11.40562 l 2.45541,4.62108 0.46776,52.21829 c 0.50869,56.78781 0.42378,55.89626 5.79489,60.84594 3.30032,3.04138 9.99495,3.61892 48.07146,4.14705 l 32.15288,0.44596 2.862,-2.4082 c 5.95155,-5.0079 5.77335,-3.10593 6.29534,-67.18973 0.55776,-68.47397 -0.57329,-62.09641 12.20502,-68.81949 9.71808,-5.11299 11.34407,-6.53855 13.30026,-11.66074 2.21745,-5.80631 1.22475,-9.57467 -3.66838,-13.92535 -5.12228,-4.55447 -17.16442,-13.82127 -22.74137,-17.5002 -2.37464,-1.56647 -7.02119,-5.10161 -10.32567,-7.85585 -3.30449,-2.75425 -9.50899,-7.61647 -13.78778,-10.80496 -9.34867,-6.96645 -16.10608,-12.42563 -23.32806,-18.84625 -2.96013,-2.63167 -7.32705,-5.99941 -9.70428,-7.48387 -2.37723,-1.48446 -6.90814,-5.23517 -10.06867,-8.33491 -3.16055,-3.09974 -8.41489,-7.32484 -11.67633,-9.38911 -5.78524,-3.66168 -16.34564,-11.32592 -27.75136,-20.14061 -3.11181,-2.4049 -9.60887,-7.08016 -14.4379,-10.38946 -4.82904,-3.30931 -10.39601,-7.26421 -12.37104,-8.78867 -7.2208,-5.573486 -17.54331,-6.305352 -26.02257,-1.845 -7.16122,3.76702 -22.20945,14.1647 -26.76372,18.4926 -2.03328,1.93221 -6.68367,5.52354 -10.3342,7.98074 -3.65053,2.45721 -13.33747,9.66637 -21.52652,16.02036 -8.18905,6.354 -17.47124,13.36579 -20.62709,15.58175 -3.15584,2.21597 -8.02533,6.18898 -10.82109,8.82891 -2.79575,2.63994 -7.50453,6.39783 -10.46394,8.35086 -2.95941,1.95304 -6.03021,4.54218 -6.824,5.75365 -0.79379,1.21148 -4.81887,4.64508 -8.94462,7.63023 -4.12575,2.98516 -8.54112,6.55486 -9.81191,7.93266 -1.2708,1.37781 -4.75592,4.17451 -7.744702,6.21488 -2.988784,2.04039 -8.603405,6.259 -12.476935,9.3747 -3.87353,3.11571 -9.243815,7.06923 -11.933967,8.78561 -7.411463,4.72868 -9.384828,10.35997 -6.074797,17.33535 1.746714,3.68092 4.676332,5.40725 10.42386,6.14242 4.424187,0.56591 7.667369,2.56237 10.651408,6.55691 1.862416,2.4931 1.919091,3.88274 2.504259,61.40335 0.329295,32.3689 0.984299,60.51613 1.455564,62.5494 1.728673,7.45838 4.038314,9.84939 10.29648,10.65922 5.71232,0.73919 53.57611,0.0579 65.4493,-0.93166 z"
       id="path4678" />
    <path
       style="fill:url(#linearGradient6750-2);fill-opacity:1;stroke:#00d2ea;stroke-width:1;stroke-linecap:round;stroke-linejoin:round;stroke-miterlimit:4;stroke-dasharray:none;stroke-opacity:1;filter:url(#filter6764-1)"
       d="m 231.13709,514.08056 c -7.07096,-6.70633 -29.19935,-28.13064 -49.1742,-47.60958 l -36.3179,-35.41626 -11.27929,0.46223 c -6.20361,0.25422 -22.71649,0.67954 -36.695279,0.94517 L 72.254442,432.94507 61.86221,423.92537 51.469977,414.90568 51.464764,241.4716 51.45955,68.037532 62.781214,57.77861 74.102877,47.519689 l 170.518113,0.531684 170.51811,0.531685 9.52137,9.870543 c 5.23675,5.428798 10.18487,10.826902 10.99583,11.995785 1.34715,1.941742 1.37326,16.784529 0.30246,171.904434 l -1.172,169.77921 -10.06771,9.56083 -10.0677,9.56084 -14.5436,-0.0849 c -7.99898,-0.0467 -23.52674,-0.35441 -34.50613,-0.68375 l -19.96252,-0.59879 -30.40733,29.42384 c -36.2903,35.11653 -69.90419,66.96282 -70.67953,66.96282 -0.30737,0 -6.34418,-5.487 -13.41515,-12.19332 z M 169.46307,383.04345 c 5.17438,-0.43124 10.57422,-1.34305 11.99965,-2.02624 1.42543,-0.68319 3.63825,-3.11137 4.9174,-5.39596 l 2.32572,-4.15379 0.53986,-50.36985 c 0.34093,-31.80982 0.89701,-51.22123 1.50914,-52.68039 1.55773,-3.71328 9.43139,-13.71404 12.85014,-16.32164 3.02351,-2.30615 3.81353,-2.42826 20.46309,-3.16306 9.52499,-0.42037 26.21087,-0.78315 37.07975,-0.80619 18.63887,-0.0396 19.95155,0.0714 23.10543,1.95364 5.21256,3.11074 8.38832,6.38725 11.05483,11.40562 l 2.45541,4.62108 0.46776,52.21829 c 0.50869,56.78781 0.42378,55.89626 5.79489,60.84594 3.30032,3.04138 9.99495,3.61892 48.07146,4.14705 l 32.15288,0.44596 2.862,-2.4082 c 5.95155,-5.0079 5.77335,-3.10593 6.29534,-67.18973 0.55776,-68.47397 -0.57329,-62.09641 12.20502,-68.81949 9.71808,-5.11299 11.34407,-6.53855 13.30026,-11.66074 2.21745,-5.80631 1.22475,-9.57467 -3.66838,-13.92535 -5.12228,-4.55447 -17.16442,-13.82127 -22.74137,-17.5002 -2.37464,-1.56647 -7.02119,-5.10161 -10.32567,-7.85585 -3.30449,-2.75425 -9.50899,-7.61647 -13.78778,-10.80496 -9.34867,-6.96645 -16.10608,-12.42563 -23.32806,-18.84625 -2.96013,-2.63167 -7.32705,-5.99941 -9.70428,-7.48387 -2.37723,-1.48446 -6.90814,-5.23517 -10.06867,-8.33491 -3.16055,-3.09974 -8.41489,-7.32484 -11.67633,-9.38911 -5.78524,-3.66168 -16.34564,-11.32592 -27.75136,-20.14061 -3.11181,-2.4049 -9.60887,-7.08016 -14.4379,-10.38946 -4.82904,-3.30931 -10.39601,-7.26421 -12.37104,-8.78867 -7.2208,-5.573488 -17.54331,-6.305354 -26.02257,-1.845002 -7.16122,3.767022 -22.20945,14.164702 -26.76372,18.492602 -2.03328,1.93221 -6.68367,5.52354 -10.3342,7.98074 -3.65053,2.45721 -13.33747,9.66637 -21.52652,16.02036 -8.18905,6.354 -17.47124,13.36579 -20.62709,15.58175 -3.15584,2.21597 -8.02533,6.18898 -10.82109,8.82891 -2.79575,2.63994 -7.50453,6.39783 -10.46394,8.35086 -2.95941,1.95304 -6.03021,4.54218 -6.824,5.75365 -0.79379,1.21148 -4.81887,4.64508 -8.94462,7.63023 -4.12575,2.98516 -8.54112,6.55486 -9.81191,7.93266 -1.2708,1.37781 -4.75592,4.17451 -7.744702,6.21488 -2.988784,2.04039 -8.603405,6.259 -12.476935,9.3747 -3.87353,3.11571 -9.243815,7.06923 -11.933967,8.78561 -7.411463,4.72868 -9.384828,10.35997 -6.074797,17.33535 1.746714,3.68092 4.676332,5.40725 10.42386,6.14242 4.424187,0.56591 7.667369,2.56237 10.651408,6.55691 1.862416,2.4931 1.919091,3.88274 2.504259,61.40335 0.329295,32.3689 0.984299,60.51613 1.455564,62.5494 1.728673,7.45838 4.038314,9.84939 10.29648,10.65922 5.71232,0.73919 53.57611,0.0579 65.4493,-0.93166 z"
       id="path4678-5" />
  </g>
</svg>
