<?xml version="1.0" encoding="UTF-8" standalone="no"?>
<svg
   xmlns:dc="http://purl.org/dc/elements/1.1/"
   xmlns:cc="http://creativecommons.org/ns#"
   xmlns:rdf="http://www.w3.org/1999/02/22-rdf-syntax-ns#"
   xmlns:svg="http://www.w3.org/2000/svg"
   xmlns="http://www.w3.org/2000/svg"
   id="svg3336"
   version="1.1"
   width="500"
   height="500"
   viewBox="0 0 500 500">
  <metadata
     id="metadata3342">
    <rdf:RDF>
      <cc:Work
         rdf:about="">
        <dc:format>image/svg+xml</dc:format>
        <dc:type
           rdf:resource="http://purl.org/dc/dcmitype/StillImage" />
        <dc:title></dc:title>
      </cc:Work>
    </rdf:RDF>
  </metadata>
  <defs
     id="defs3340">
    <filter
       height="1.0257003"
       y="-0.012850151"
       width="1.0225107"
       x="-0.011255358"
       id="filter6173"
       style="color-interpolation-filters:sRGB">
      <feGaussianBlur
         id="feGaussianBlur6175"
         stdDeviation="2.3151805" />
    </filter>
  </defs>
  <path
     id="path3348"
     d="m 94.161664,460.83502 c -4.454909,-0.92847 -7.125908,-3.71305 -7.972233,-8.31121 -0.403625,-2.19294 -1.305297,-27.3309 -2.003717,-55.86215 -0.69842,-28.53125 -1.713501,-53.84375 -2.255737,-56.25 -0.700113,-3.10685 -1.755176,-4.48653 -3.63987,-4.75974 -2.908756,-0.42166 -15.684782,5.65843 -28.836583,13.72329 -11.682418,7.1638 -27.725129,14.78645 -31.119744,14.78645 -4.14291,0 -11.1933462,-6.78778 -13.6023144,-13.09557 -1.5146727,-3.96612 -1.9671755,-8.23827 -1.6387062,-15.47129 0.3890497,-8.56704 0.8987854,-10.47257 3.573838,-13.35993 4.7526546,-5.12987 19.6316186,-16.13121 43.1200666,-31.8825 32.683826,-21.91768 32.706139,-21.94499 38.773537,-47.44071 3.70655,-15.57524 30.983129,-112.20636 33.247949,-117.78554 2.13101,-5.24956 12.34273,-14.9354 29.03801,-27.542606 30.29267,-22.875118 95.09071,-68.42185 97.34181,-68.42185 6.08411,0 29.63849,15.26381 89.71396,58.13685 l 41.06597,29.306836 1.85439,6.59066 c 1.01992,3.62485 5.88084,21.4969 10.80207,39.71565 10.32834,38.23634 18.87504,65.17834 23.79193,75 3.63196,7.25497 6.94703,17.55096 8.12142,25.2236 0.53588,3.50098 2.27999,6.037 7.30717,10.625 6.60628,6.02912 9.79182,8.26174 40.22603,28.19295 8.95634,5.86545 18.37821,12.98224 20.9375,15.81506 4.6296,5.12442 4.65325,5.2066 4.65325,16.17011 0,17.86607 -5.33383,30.22328 -13.04548,30.22328 -2.89052,0 -16.05305,-6.40163 -44.49685,-21.64118 -6.57888,-3.52481 -11.28279,-5.33493 -12.27316,-4.72286 -2.31187,1.42883 -3.84331,26.04135 -3.93482,63.23904 -0.1419,57.6809 -1.80554,61.31832 -27.63517,60.42265 -15.38123,-0.53336 -18.06198,-2.19508 -22.00777,-13.6419 -1.52253,-4.41691 -2.78815,-9.54101 -2.8125,-11.38688 -0.0244,-1.84587 -0.59283,-4.799 -1.26331,-6.5625 l -1.21906,-3.20637 -115.03094,0 c -75.85397,0 -115.03094,-0.42573 -115.03094,-1.25 0,-0.80686 13.94791,-1.25 39.34375,-1.25 l 39.34375,0 -0.90625,-4.0625 c -0.49844,-2.23438 -0.90625,-27.51885 -0.90625,-56.18773 0,-41.08854 0.34389,-52.46923 1.62416,-53.75 1.25448,-1.25496 9.51713,-1.62477 36.30166,-1.62477 39.05084,0 40.01759,0.2044 42.80685,9.05067 0.99618,3.15945 1.67248,21.39683 2.0639,55.65608 l 0.5822,50.95675 35.18562,-0.33175 35.18561,-0.33175 -0.14445,-4.375 c -0.0795,-2.40625 -1.18043,-30.14821 -2.4466,-61.6488 l -2.30215,-57.27381 -38.47456,-23.09813 -38.47457,-23.09813 -10.32883,6.2402 c -21.97564,13.27662 -34.42873,13.16747 -56.57884,-0.49593 -2.75,-1.69635 -6.436,-3.09352 -8.19113,-3.10484 -6.44346,-0.0415 -32.91383,14.74685 -65.24637,36.4516 l -10.9375,7.34233 -0.12438,60.28025 c -0.0684,33.15415 -0.31605,62.81151 -0.55036,65.90526 -2.01314,26.57931 -2.6902,28.57417 -10.79948,31.81888 -5.3529,2.1418 -23.79808,3.60033 -29.775776,2.35448 z"
     style="fill:#a13a39;filter:url(#filter6173);stroke:#e4d3ff;stroke-opacity:1;stroke-linejoin:round;stroke-linecap:round" />
</svg>
